<svg xmlns="http://www.w3.org/2000/svg" xml:space="preserve" style="enable-background:new 0 0 24 24" viewBox="0 0 24 24"><path d="M11.9 14.8H8.6s-.1 0-.1.1l-.2.7c0 .1 0 .2.1.2h1.3c.1 0 .1.1.1.2l-2 2.2 1 3.4c0 .1 0 .1-.1.1h-1s-.1 0-.1-.1L7 19.8c0-.1-.2-.1-.2 0L6.4 21v.1l.4 1.5.1.1h3.3c.1 0 .1-.1.1-.1L9 18.3v-.1l3-3.2c0-.1 0-.2-.1-.2z"/><path d="M8 13H6s-.1 0-.1.1l-.3.7c0 .1 0 .2.1.2h.8c.1 0 .1.1.1.2l-2.4 6.7c0 .1-.1.1-.1.1s-.1 0-.1-.1L2.4 16c0-.1 0-.1.1-.1h.9s.1 0 .1.1l.6 1.7c0 .1.1.1.1.1s.1 0 .1-.1l1-2.7c0-.1 0-.1-.1-.1H1.1c-.1-.1-.1 0-.1 0l3.1 9c.1.1.1.1.2.1 0 0 .1 0 .1-.1l3.8-10.8c-.1 0-.1-.1-.2-.1z" style="fill:#d8141c"/><path d="M6 8h2V7H6v1z"/><path d="M10 2H4c-.6 0-1 .4-1 1v7c0 .6.4 1 1 1h6c.6 0 1-.4 1-1V3c0-.6-.4-1-1-1zm-.5 7.5h-5v-6h5v6zM18 8h-2V7h2v1z"/><path d="M20 2h-6c-.6 0-1 .4-1 1v7c0 .6.4 1 1 1h6c.6 0 1-.4 1-1V3c0-.6-.4-1-1-1zm-.5 7.5h-5v-6h5v6zM18 19h-2v-1h2v1z"/><path d="M20 13h-6c-.5 0-.9.3-1 .8.6.6.7 1.6 0 2.3V21c0 .6.4 1 1 1h6c.6 0 1-.4 1-1v-7c0-.6-.4-1-1-1zm-.5 7.5h-5v-6h5v6z"/></svg>