<svg xmlns="http://www.w3.org/2000/svg" width="24" height="24" fill="none"><path d="m11.89 14.778-3.267.008a.11.11 0 0 0-.102.075l-.25.722c-.022.076.03.152.103.152h1.27c.095 0 .146.122.08.19L7.7 18.105h.007l1.042 3.397c.022.076-.03.145-.103.145h-1.02a.104.104 0 0 1-.102-.076L7 19.83c-.029-.107-.168-.107-.205-.008l-.426 1.223a.109.109 0 0 0 0 .069l.39 1.481c.014.046.058.084.102.084h3.288c.073 0 .125-.076.103-.145l-1.329-4.277c-.014-.038 0-.084.03-.114l3.016-3.176c.066-.069.015-.19-.08-.19Z"/><path fill="#D8141C" d="m8.022 13-1.99.008a.11.11 0 0 0-.102.076l-.257.721c-.03.076.03.152.103.152h.836c.074 0 .125.076.103.152l-2.37 6.717a.108.108 0 0 1-.206 0l-1.703-4.848a.112.112 0 0 1 .103-.152h.859a.11.11 0 0 1 .103.076l.616 1.748a.108.108 0 0 0 .206 0l.954-2.72a.112.112 0 0 0-.103-.152H1.108c-.074 0-.125.076-.103.152l3.127 8.996a.108.108 0 0 0 .205 0l3.787-10.774c.022-.076-.029-.152-.102-.152Z"/><path d="M21 6v12a2 2 0 0 1-2 2h-7.964l-.438-1.41.086-.09H19a.5.5 0 0 0 .5-.5V6a.5.5 0 0 0-.5-.5H5a.5.5 0 0 0-.5.5v6.628l-.231.65H3V6a2 2 0 0 1 2-2h14a2 2 0 0 1 2 2ZM13.5 15Z"/><path d="M13.5 14.808V14h-.268c.157.24.25.52.268.808ZM10 9.5a1.5 1.5 0 1 1-3 0 1.5 1.5 0 0 1 3 0ZM14.5 15h2v-1h-2v1ZM14.5 10h2V9h-2v1ZM11.5 10h2V9h-2v1Z"/></svg>